# MagicaVoxel @ Ephtracy

# material
mtllib Knight.mtl
usemtl palette

# normals
vn -1 0 0
vn 1 0 0
vn 0 0 1
vn 0 0 -1
vn 0 -1 0
vn 0 1 0

# texcoords
vt 0.00585938 0.5
vt 0.841797 0.5
vt 0.958984 0.5
vt 0.978516 0.5
vt 0.986328 0.5
vt 0.994141 0.5

# verts
v -24.5 26 1.5
v -24.5 26 -0.5
v -24.5 30 1.5
v -24.5 30 -0.5
v -21.5 26 2.5
v -21.5 26 1.5
v -21.5 26 -0.5
v -21.5 26 -1.5
v -21.5 30 2.5
v -21.5 30 1.5
v -21.5 30 -0.5
v -21.5 30 -1.5
v -6.5 0 5.5
v -6.5 0 -2.5
v -6.5 1 5.5
v -6.5 1 4.5
v -6.5 1 -1.5
v -6.5 1 -2.5
v -6.5 2 4.5
v -6.5 2 3.5
v -6.5 2 -1.5
v -6.5 2 -2.5
v -6.5 16 3.5
v -6.5 16 -2.5
v -6.5 26 2.5
v -6.5 26 -1.5
v -6.5 30 2.5
v -6.5 30 -1.5
v -6.5 31 3.5
v -6.5 31 -2.5
v -5.5 0 6.5
v -5.5 0 5.5
v -5.5 1 6.5
v -5.5 1 5.5
v -5.5 1 4.5
v -5.5 1 -1.5
v -5.5 1 -2.5
v -5.5 2 5.5
v -5.5 2 4.5
v -5.5 2 3.5
v -5.5 2 -1.5
v -5.5 2 -2.5
v -5.5 3 4.5
v -5.5 3 3.5
v -4.5 31 3.5
v -4.5 31 -2.5
v -4.5 32 4.5
v -4.5 32 3.5
v -4.5 32 -2.5
v -4.5 32 -3.5
v -4.5 39 4.5
v -4.5 39 3.5
v -4.5 39 -2.5
v -4.5 39 -3.5
v -4.5 40 3.5
v -4.5 40 -2.5
v -3.5 31 4.5
v -3.5 31 3.5
v -3.5 31 -2.5
v -3.5 31 -3.5
v -3.5 32 4.5
v -3.5 32 3.5
v -3.5 32 -2.5
v -3.5 32 -3.5
v -3.5 39 4.5
v -3.5 39 3.5
v -3.5 39 -2.5
v -3.5 39 -3.5
v -3.5 40 4.5
v -3.5 40 3.5
v -3.5 40 -2.5
v -3.5 40 -3.5
v -2.5 1 4.5
v -2.5 1 -0.5
v -2.5 2 4.5
v -2.5 2 -0.5
v -2.5 31 2.5
v -2.5 31 -1.5
v -2.5 32 2.5
v -2.5 32 -1.5
v -1.5 32 4.5
v -1.5 32 3.5
v -1.5 35 4.5
v -1.5 35 3.5
v -1.5 36 4.5
v -1.5 36 3.5
v -1.5 38 4.5
v -1.5 38 3.5
v 0.5 32 4.5
v 0.5 32 3.5
v 0.5 35 4.5
v 0.5 35 3.5
v 1.5 0 5.5
v 1.5 0 -2.5
v 1.5 1 5.5
v 1.5 1 4.5
v 1.5 1 -1.5
v 1.5 1 -2.5
v 1.5 2 4.5
v 1.5 2 3.5
v 1.5 2 -1.5
v 1.5 2 -2.5
v 1.5 12 3.5
v 1.5 12 -2.5
v 2.5 0 6.5
v 2.5 0 5.5
v 2.5 1 6.5
v 2.5 1 5.5
v 2.5 1 4.5
v 2.5 1 -1.5
v 2.5 1 -2.5
v 2.5 2 5.5
v 2.5 2 4.5
v 2.5 2 3.5
v 2.5 2 -1.5
v 2.5 2 -2.5
v 2.5 3 4.5
v 2.5 3 3.5
v 2.5 32 4.5
v 2.5 32 3.5
v 2.5 35 4.5
v 2.5 35 3.5
v 3.5 31 3.5
v 3.5 31 -2.5
v 3.5 32 3.5
v 3.5 32 -2.5
v 3.5 36 4.5
v 3.5 36 3.5
v 3.5 38 4.5
v 3.5 38 3.5
v 5.5 1 4.5
v 5.5 1 -0.5
v 5.5 2 4.5
v 5.5 2 -0.5
v -5.5 1 4.5
v -5.5 1 -0.5
v -5.5 2 4.5
v -5.5 2 -0.5
v -3.5 31 3.5
v -3.5 31 -2.5
v -3.5 32 3.5
v -3.5 32 -2.5
v -3.5 36 4.5
v -3.5 36 3.5
v -3.5 38 4.5
v -3.5 38 3.5
v -2.5 0 6.5
v -2.5 0 5.5
v -2.5 1 6.5
v -2.5 1 5.5
v -2.5 1 4.5
v -2.5 1 -1.5
v -2.5 1 -2.5
v -2.5 2 5.5
v -2.5 2 4.5
v -2.5 2 3.5
v -2.5 2 -1.5
v -2.5 2 -2.5
v -2.5 3 4.5
v -2.5 3 3.5
v -2.5 32 4.5
v -2.5 32 3.5
v -2.5 35 4.5
v -2.5 35 3.5
v -1.5 0 5.5
v -1.5 0 -2.5
v -1.5 1 5.5
v -1.5 1 4.5
v -1.5 1 -1.5
v -1.5 1 -2.5
v -1.5 2 4.5
v -1.5 2 3.5
v -1.5 2 -1.5
v -1.5 2 -2.5
v -1.5 12 3.5
v -1.5 12 -2.5
v -0.5 32 4.5
v -0.5 32 3.5
v -0.5 35 4.5
v -0.5 35 3.5
v 1.5 32 4.5
v 1.5 32 3.5
v 1.5 35 4.5
v 1.5 35 3.5
v 1.5 36 4.5
v 1.5 36 3.5
v 1.5 38 4.5
v 1.5 38 3.5
v 2.5 1 4.5
v 2.5 1 -0.5
v 2.5 2 4.5
v 2.5 2 -0.5
v 2.5 31 2.5
v 2.5 31 -1.5
v 2.5 32 2.5
v 2.5 32 -1.5
v 3.5 31 4.5
v 3.5 31 3.5
v 3.5 31 -2.5
v 3.5 31 -3.5
v 3.5 32 4.5
v 3.5 32 3.5
v 3.5 32 -2.5
v 3.5 32 -3.5
v 3.5 39 4.5
v 3.5 39 3.5
v 3.5 39 -2.5
v 3.5 39 -3.5
v 3.5 40 4.5
v 3.5 40 3.5
v 3.5 40 -2.5
v 3.5 40 -3.5
v 4.5 31 3.5
v 4.5 31 -2.5
v 4.5 32 4.5
v 4.5 32 3.5
v 4.5 32 -2.5
v 4.5 32 -3.5
v 4.5 39 4.5
v 4.5 39 3.5
v 4.5 39 -2.5
v 4.5 39 -3.5
v 4.5 40 3.5
v 4.5 40 -2.5
v 5.5 0 6.5
v 5.5 0 5.5
v 5.5 1 6.5
v 5.5 1 5.5
v 5.5 1 4.5
v 5.5 1 -1.5
v 5.5 1 -2.5
v 5.5 2 5.5
v 5.5 2 4.5
v 5.5 2 3.5
v 5.5 2 -1.5
v 5.5 2 -2.5
v 5.5 3 4.5
v 5.5 3 3.5
v 6.5 0 5.5
v 6.5 0 -2.5
v 6.5 1 5.5
v 6.5 1 4.5
v 6.5 1 -1.5
v 6.5 1 -2.5
v 6.5 2 4.5
v 6.5 2 3.5
v 6.5 2 -1.5
v 6.5 2 -2.5
v 6.5 16 3.5
v 6.5 16 -2.5
v 6.5 26 2.5
v 6.5 26 -1.5
v 6.5 30 2.5
v 6.5 30 -1.5
v 6.5 31 3.5
v 6.5 31 -2.5
v 21.5 26 2.5
v 21.5 26 1.5
v 21.5 26 -0.5
v 21.5 26 -1.5
v 21.5 30 2.5
v 21.5 30 1.5
v 21.5 30 -0.5
v 21.5 30 -1.5
v 24.5 26 1.5
v 24.5 26 -0.5
v 24.5 30 1.5
v 24.5 30 -0.5
v -5.5 0 6.5
v -5.5 1 6.5
v -2.5 0 6.5
v -2.5 1 6.5
v 2.5 0 6.5
v 2.5 1 6.5
v 5.5 0 6.5
v 5.5 1 6.5
v -6.5 0 5.5
v -6.5 1 5.5
v -5.5 0 5.5
v -5.5 1 5.5
v -5.5 2 5.5
v -2.5 0 5.5
v -2.5 1 5.5
v -2.5 2 5.5
v -1.5 0 5.5
v -1.5 1 5.5
v 1.5 0 5.5
v 1.5 1 5.5
v 2.5 0 5.5
v 2.5 1 5.5
v 2.5 2 5.5
v 5.5 0 5.5
v 5.5 1 5.5
v 5.5 2 5.5
v 6.5 0 5.5
v 6.5 1 5.5
v -6.5 1 4.5
v -6.5 2 4.5
v -5.5 1 4.5
v -5.5 2 4.5
v -5.5 3 4.5
v -4.5 32 4.5
v -4.5 39 4.5
v -3.5 31 4.5
v -3.5 32 4.5
v -3.5 36 4.5
v -3.5 38 4.5
v -3.5 39 4.5
v -3.5 40 4.5
v -2.5 1 4.5
v -2.5 2 4.5
v -2.5 3 4.5
v -2.5 32 4.5
v -2.5 35 4.5
v -1.5 1 4.5
v -1.5 2 4.5
v -1.5 32 4.5
v -1.5 35 4.5
v -1.5 36 4.5
v -1.5 38 4.5
v -0.5 32 4.5
v -0.5 35 4.5
v 0.5 32 4.5
v 0.5 35 4.5
v 1.5 1 4.5
v 1.5 2 4.5
v 1.5 32 4.5
v 1.5 35 4.5
v 1.5 36 4.5
v 1.5 38 4.5
v 2.5 1 4.5
v 2.5 2 4.5
v 2.5 3 4.5
v 2.5 32 4.5
v 2.5 35 4.5
v 3.5 31 4.5
v 3.5 32 4.5
v 3.5 36 4.5
v 3.5 38 4.5
v 3.5 39 4.5
v 3.5 40 4.5
v 4.5 32 4.5
v 4.5 39 4.5
v 5.5 1 4.5
v 5.5 2 4.5
v 5.5 3 4.5
v 6.5 1 4.5
v 6.5 2 4.5
v -6.5 2 3.5
v -6.5 16 3.5
v -6.5 31 3.5
v -5.5 2 3.5
v -5.5 3 3.5
v -4.5 31 3.5
v -4.5 32 3.5
v -4.5 39 3.5
v -4.5 40 3.5
v -3.5 31 3.5
v -3.5 32 3.5
v -3.5 36 3.5
v -3.5 38 3.5
v -3.5 39 3.5
v -3.5 40 3.5
v -2.5 2 3.5
v -2.5 3 3.5
v -2.5 32 3.5
v -2.5 35 3.5
v -2.5 36 3.5
v -2.5 38 3.5
v -1.5 2 3.5
v -1.5 12 3.5
v -1.5 32 3.5
v -1.5 35 3.5
v -1.5 36 3.5
v -1.5 38 3.5
v -0.5 32 3.5
v -0.5 35 3.5
v 0.5 32 3.5
v 0.5 35 3.5
v 1.5 2 3.5
v 1.5 12 3.5
v 1.5 32 3.5
v 1.5 35 3.5
v 1.5 36 3.5
v 1.5 38 3.5
v 2.5 2 3.5
v 2.5 3 3.5
v 2.5 32 3.5
v 2.5 35 3.5
v 2.5 36 3.5
v 2.5 38 3.5
v 3.5 31 3.5
v 3.5 32 3.5
v 3.5 36 3.5
v 3.5 38 3.5
v 3.5 39 3.5
v 3.5 40 3.5
v 4.5 31 3.5
v 4.5 32 3.5
v 4.5 39 3.5
v 4.5 40 3.5
v 5.5 2 3.5
v 5.5 3 3.5
v 6.5 2 3.5
v 6.5 16 3.5
v 6.5 31 3.5
v -21.5 26 2.5
v -21.5 30 2.5
v -6.5 26 2.5
v -6.5 30 2.5
v -2.5 31 2.5
v -2.5 32 2.5
v 2.5 31 2.5
v 2.5 32 2.5
v 6.5 26 2.5
v 6.5 30 2.5
v 21.5 26 2.5
v 21.5 30 2.5
v -24.5 26 1.5
v -24.5 30 1.5
v -21.5 26 1.5
v -21.5 30 1.5
v 21.5 26 1.5
v 21.5 30 1.5
v 24.5 26 1.5
v 24.5 30 1.5
v -5.5 1 -0.5
v -5.5 2 -0.5
v -2.5 1 -0.5
v -2.5 2 -0.5
v 2.5 1 -0.5
v 2.5 2 -0.5
v 5.5 1 -0.5
v 5.5 2 -0.5
v -3.5 31 -2.5
v -3.5 32 -2.5
v 3.5 31 -2.5
v 3.5 32 -2.5
v -5.5 1 4.5
v -5.5 2 4.5
v -2.5 1 4.5
v -2.5 2 4.5
v 2.5 1 4.5
v 2.5 2 4.5
v 5.5 1 4.5
v 5.5 2 4.5
v -3.5 31 3.5
v -3.5 32 3.5
v 3.5 31 3.5
v 3.5 32 3.5
v -24.5 26 -0.5
v -24.5 30 -0.5
v -21.5 26 -0.5
v -21.5 30 -0.5
v 21.5 26 -0.5
v 21.5 30 -0.5
v 24.5 26 -0.5
v 24.5 30 -0.5
v -21.5 26 -1.5
v -21.5 30 -1.5
v -6.5 1 -1.5
v -6.5 2 -1.5
v -6.5 26 -1.5
v -6.5 30 -1.5
v -5.5 1 -1.5
v -5.5 2 -1.5
v -2.5 1 -1.5
v -2.5 2 -1.5
v -2.5 31 -1.5
v -2.5 32 -1.5
v -1.5 1 -1.5
v -1.5 2 -1.5
v 1.5 1 -1.5
v 1.5 2 -1.5
v 2.5 1 -1.5
v 2.5 2 -1.5
v 2.5 31 -1.5
v 2.5 32 -1.5
v 5.5 1 -1.5
v 5.5 2 -1.5
v 6.5 1 -1.5
v 6.5 2 -1.5
v 6.5 26 -1.5
v 6.5 30 -1.5
v 21.5 26 -1.5
v 21.5 30 -1.5
v -6.5 0 -2.5
v -6.5 1 -2.5
v -6.5 2 -2.5
v -6.5 16 -2.5
v -6.5 31 -2.5
v -5.5 1 -2.5
v -5.5 2 -2.5
v -4.5 31 -2.5
v -4.5 32 -2.5
v -4.5 39 -2.5
v -4.5 40 -2.5
v -3.5 31 -2.5
v -3.5 32 -2.5
v -3.5 39 -2.5
v -3.5 40 -2.5
v -2.5 1 -2.5
v -2.5 2 -2.5
v -1.5 0 -2.5
v -1.5 1 -2.5
v -1.5 2 -2.5
v -1.5 12 -2.5
v 1.5 0 -2.5
v 1.5 1 -2.5
v 1.5 2 -2.5
v 1.5 12 -2.5
v 2.5 1 -2.5
v 2.5 2 -2.5
v 3.5 31 -2.5
v 3.5 32 -2.5
v 3.5 39 -2.5
v 3.5 40 -2.5
v 4.5 31 -2.5
v 4.5 32 -2.5
v 4.5 39 -2.5
v 4.5 40 -2.5
v 5.5 1 -2.5
v 5.5 2 -2.5
v 6.5 0 -2.5
v 6.5 1 -2.5
v 6.5 2 -2.5
v 6.5 16 -2.5
v 6.5 31 -2.5
v -4.5 32 -3.5
v -4.5 39 -3.5
v -3.5 31 -3.5
v -3.5 32 -3.5
v -3.5 39 -3.5
v -3.5 40 -3.5
v 3.5 31 -3.5
v 3.5 32 -3.5
v 3.5 39 -3.5
v 3.5 40 -3.5
v 4.5 32 -3.5
v 4.5 39 -3.5
v -5.5 0 6.5
v -2.5 0 6.5
v 2.5 0 6.5
v 5.5 0 6.5
v -6.5 0 5.5
v -5.5 0 5.5
v -2.5 0 5.5
v -1.5 0 5.5
v 1.5 0 5.5
v 2.5 0 5.5
v 5.5 0 5.5
v 6.5 0 5.5
v -6.5 0 -2.5
v -1.5 0 -2.5
v 1.5 0 -2.5
v 6.5 0 -2.5
v -5.5 2 4.5
v -2.5 2 4.5
v 2.5 2 4.5
v 5.5 2 4.5
v -5.5 2 -0.5
v -2.5 2 -0.5
v 2.5 2 -0.5
v 5.5 2 -0.5
v -6.5 2 -1.5
v -5.5 2 -1.5
v -2.5 2 -1.5
v -1.5 2 -1.5
v 1.5 2 -1.5
v 2.5 2 -1.5
v 5.5 2 -1.5
v 6.5 2 -1.5
v -6.5 2 -2.5
v -5.5 2 -2.5
v -2.5 2 -2.5
v -1.5 2 -2.5
v 1.5 2 -2.5
v 2.5 2 -2.5
v 5.5 2 -2.5
v 6.5 2 -2.5
v -1.5 12 3.5
v 1.5 12 3.5
v -1.5 12 -2.5
v 1.5 12 -2.5
v -21.5 26 2.5
v -6.5 26 2.5
v 6.5 26 2.5
v 21.5 26 2.5
v -24.5 26 1.5
v -21.5 26 1.5
v 21.5 26 1.5
v 24.5 26 1.5
v -24.5 26 -0.5
v -21.5 26 -0.5
v 21.5 26 -0.5
v 24.5 26 -0.5
v -21.5 26 -1.5
v -6.5 26 -1.5
v 6.5 26 -1.5
v 21.5 26 -1.5
v -3.5 31 4.5
v 3.5 31 4.5
v -3.5 31 3.5
v 3.5 31 3.5
v -3.5 31 -2.5
v 3.5 31 -2.5
v -3.5 31 -3.5
v 3.5 31 -3.5
v -4.5 32 4.5
v -3.5 32 4.5
v 3.5 32 4.5
v 4.5 32 4.5
v -4.5 32 3.5
v -3.5 32 3.5
v 3.5 32 3.5
v 4.5 32 3.5
v -2.5 32 2.5
v 2.5 32 2.5
v -2.5 32 -1.5
v 2.5 32 -1.5
v -4.5 32 -2.5
v -3.5 32 -2.5
v 3.5 32 -2.5
v 4.5 32 -2.5
v -4.5 32 -3.5
v -3.5 32 -3.5
v 3.5 32 -3.5
v 4.5 32 -3.5
v -2.5 35 4.5
v -1.5 35 4.5
v -0.5 35 4.5
v 0.5 35 4.5
v 1.5 35 4.5
v 2.5 35 4.5
v -2.5 35 3.5
v -1.5 35 3.5
v -0.5 35 3.5
v 0.5 35 3.5
v 1.5 35 3.5
v 2.5 35 3.5
v -3.5 38 4.5
v -1.5 38 4.5
v 1.5 38 4.5
v 3.5 38 4.5
v -3.5 38 3.5
v -2.5 38 3.5
v -1.5 38 3.5
v 1.5 38 3.5
v 2.5 38 3.5
v 3.5 38 3.5
v -5.5 1 6.5
v -2.5 1 6.5
v 2.5 1 6.5
v 5.5 1 6.5
v -6.5 1 5.5
v -5.5 1 5.5
v -2.5 1 5.5
v -1.5 1 5.5
v 1.5 1 5.5
v 2.5 1 5.5
v 5.5 1 5.5
v 6.5 1 5.5
v -6.5 1 4.5
v -5.5 1 4.5
v -2.5 1 4.5
v -1.5 1 4.5
v 1.5 1 4.5
v 2.5 1 4.5
v 5.5 1 4.5
v 6.5 1 4.5
v -5.5 1 -0.5
v -2.5 1 -0.5
v 2.5 1 -0.5
v 5.5 1 -0.5
v -6.5 1 -1.5
v -5.5 1 -1.5
v -2.5 1 -1.5
v -1.5 1 -1.5
v 1.5 1 -1.5
v 2.5 1 -1.5
v 5.5 1 -1.5
v 6.5 1 -1.5
v -6.5 1 -2.5
v -5.5 1 -2.5
v -2.5 1 -2.5
v -1.5 1 -2.5
v 1.5 1 -2.5
v 2.5 1 -2.5
v 5.5 1 -2.5
v 6.5 1 -2.5
v -5.5 2 5.5
v -2.5 2 5.5
v 2.5 2 5.5
v 5.5 2 5.5
v -6.5 2 4.5
v -5.5 2 4.5
v -2.5 2 4.5
v -1.5 2 4.5
v 1.5 2 4.5
v 2.5 2 4.5
v 5.5 2 4.5
v 6.5 2 4.5
v -6.5 2 3.5
v -5.5 2 3.5
v -2.5 2 3.5
v -1.5 2 3.5
v 1.5 2 3.5
v 2.5 2 3.5
v 5.5 2 3.5
v 6.5 2 3.5
v -5.5 3 4.5
v -2.5 3 4.5
v 2.5 3 4.5
v 5.5 3 4.5
v -5.5 3 3.5
v -2.5 3 3.5
v 2.5 3 3.5
v 5.5 3 3.5
v -21.5 30 2.5
v -6.5 30 2.5
v 6.5 30 2.5
v 21.5 30 2.5
v -24.5 30 1.5
v -21.5 30 1.5
v 21.5 30 1.5
v 24.5 30 1.5
v -24.5 30 -0.5
v -21.5 30 -0.5
v 21.5 30 -0.5
v 24.5 30 -0.5
v -21.5 30 -1.5
v -6.5 30 -1.5
v 6.5 30 -1.5
v 21.5 30 -1.5
v -6.5 31 3.5
v -4.5 31 3.5
v -3.5 31 3.5
v 3.5 31 3.5
v 4.5 31 3.5
v 6.5 31 3.5
v -2.5 31 2.5
v 2.5 31 2.5
v -2.5 31 -1.5
v 2.5 31 -1.5
v -6.5 31 -2.5
v -4.5 31 -2.5
v -3.5 31 -2.5
v 3.5 31 -2.5
v 4.5 31 -2.5
v 6.5 31 -2.5
v -2.5 32 4.5
v -1.5 32 4.5
v -0.5 32 4.5
v 0.5 32 4.5
v 1.5 32 4.5
v 2.5 32 4.5
v -2.5 32 3.5
v -1.5 32 3.5
v -0.5 32 3.5
v 0.5 32 3.5
v 1.5 32 3.5
v 2.5 32 3.5
v -3.5 36 4.5
v -1.5 36 4.5
v 1.5 36 4.5
v 3.5 36 4.5
v -3.5 36 3.5
v -2.5 36 3.5
v -1.5 36 3.5
v 1.5 36 3.5
v 2.5 36 3.5
v 3.5 36 3.5
v -4.5 39 4.5
v -3.5 39 4.5
v 3.5 39 4.5
v 4.5 39 4.5
v -4.5 39 3.5
v -3.5 39 3.5
v 3.5 39 3.5
v 4.5 39 3.5
v -4.5 39 -2.5
v -3.5 39 -2.5
v 3.5 39 -2.5
v 4.5 39 -2.5
v -4.5 39 -3.5
v -3.5 39 -3.5
v 3.5 39 -3.5
v 4.5 39 -3.5
v -3.5 40 4.5
v 3.5 40 4.5
v -4.5 40 3.5
v -3.5 40 3.5
v 3.5 40 3.5
v 4.5 40 3.5
v -4.5 40 -2.5
v -3.5 40 -2.5
v 3.5 40 -2.5
v 4.5 40 -2.5
v -3.5 40 -3.5
v 3.5 40 -3.5

# faces
f 3/1/1 2/1/1 1/1/1
f 4/1/1 2/1/1 3/1/1
f 9/5/1 6/5/1 5/5/1
f 10/5/1 6/5/1 9/5/1
f 11/5/1 8/5/1 7/5/1
f 12/5/1 8/5/1 11/5/1
f 15/6/1 14/6/1 13/6/1
f 16/6/1 14/6/1 15/6/1
f 17/6/1 14/6/1 16/6/1
f 18/6/1 14/6/1 17/6/1
f 19/6/1 17/6/1 16/6/1
f 20/6/1 17/6/1 19/6/1
f 21/6/1 17/6/1 20/6/1
f 23/4/1 22/4/1 21/4/1
f 23/4/1 21/4/1 20/4/1
f 24/4/1 22/4/1 23/4/1
f 25/5/1 24/5/1 23/5/1
f 26/5/1 24/5/1 25/5/1
f 27/5/1 25/5/1 23/5/1
f 28/5/1 24/5/1 26/5/1
f 29/5/1 27/5/1 23/5/1
f 29/5/1 28/5/1 27/5/1
f 30/5/1 24/5/1 28/5/1
f 30/5/1 28/5/1 29/5/1
f 33/6/1 32/6/1 31/6/1
f 34/6/1 32/6/1 33/6/1
f 38/6/1 35/6/1 34/6/1
f 39/6/1 35/6/1 38/6/1
f 41/6/1 37/6/1 36/6/1
f 42/6/1 37/6/1 41/6/1
f 43/6/1 40/6/1 39/6/1
f 44/6/1 40/6/1 43/6/1
f 48/4/1 46/4/1 45/4/1
f 49/4/1 46/4/1 48/4/1
f 51/4/1 48/4/1 47/4/1
f 51/4/1 50/4/1 49/4/1
f 51/4/1 49/4/1 48/4/1
f 52/4/1 50/4/1 51/4/1
f 53/4/1 50/4/1 52/4/1
f 54/4/1 50/4/1 53/4/1
f 55/4/1 53/4/1 52/4/1
f 56/4/1 53/4/1 55/4/1
f 61/4/1 58/4/1 57/4/1
f 62/4/1 58/4/1 61/4/1
f 63/4/1 60/4/1 59/4/1
f 64/4/1 60/4/1 63/4/1
f 69/4/1 66/4/1 65/4/1
f 70/4/1 66/4/1 69/4/1
f 71/4/1 68/4/1 67/4/1
f 72/4/1 68/4/1 71/4/1
f 75/6/1 74/6/1 73/6/1
f 76/6/1 74/6/1 75/6/1
f 79/1/1 78/1/1 77/1/1
f 80/1/1 78/1/1 79/1/1
f 83/4/1 82/4/1 81/4/1
f 84/4/1 82/4/1 83/4/1
f 87/4/1 86/4/1 85/4/1
f 88/4/1 86/4/1 87/4/1
f 91/4/1 90/4/1 89/4/1
f 92/4/1 90/4/1 91/4/1
f 95/6/1 94/6/1 93/6/1
f 96/6/1 94/6/1 95/6/1
f 97/6/1 94/6/1 96/6/1
f 98/6/1 94/6/1 97/6/1
f 99/6/1 97/6/1 96/6/1
f 100/6/1 97/6/1 99/6/1
f 101/6/1 97/6/1 100/6/1
f 103/4/1 102/4/1 101/4/1
f 103/4/1 101/4/1 100/4/1
f 104/4/1 102/4/1 103/4/1
f 107/6/1 106/6/1 105/6/1
f 108/6/1 106/6/1 107/6/1
f 112/6/1 109/6/1 108/6/1
f 113/6/1 109/6/1 112/6/1
f 115/6/1 111/6/1 110/6/1
f 116/6/1 111/6/1 115/6/1
f 117/6/1 114/6/1 113/6/1
f 118/6/1 114/6/1 117/6/1
f 121/4/1 120/4/1 119/4/1
f 122/4/1 120/4/1 121/4/1
f 125/4/1 124/4/1 123/4/1
f 126/4/1 124/4/1 125/4/1
f 129/4/1 128/4/1 127/4/1
f 130/4/1 128/4/1 129/4/1
f 133/6/1 132/6/1 131/6/1
f 134/6/1 132/6/1 133/6/1
f 135/6/2 136/6/2 137/6/2
f 137/6/2 136/6/2 138/6/2
f 139/4/2 140/4/2 141/4/2
f 141/4/2 140/4/2 142/4/2
f 143/4/2 144/4/2 145/4/2
f 145/4/2 144/4/2 146/4/2
f 147/6/2 148/6/2 149/6/2
f 149/6/2 148/6/2 150/6/2
f 150/6/2 151/6/2 154/6/2
f 154/6/2 151/6/2 155/6/2
f 152/6/2 153/6/2 157/6/2
f 157/6/2 153/6/2 158/6/2
f 155/6/2 156/6/2 159/6/2
f 159/6/2 156/6/2 160/6/2
f 161/4/2 162/4/2 163/4/2
f 163/4/2 162/4/2 164/4/2
f 165/6/2 166/6/2 167/6/2
f 167/6/2 166/6/2 168/6/2
f 168/6/2 166/6/2 169/6/2
f 169/6/2 166/6/2 170/6/2
f 168/6/2 169/6/2 171/6/2
f 171/6/2 169/6/2 172/6/2
f 172/6/2 169/6/2 173/6/2
f 173/4/2 174/4/2 175/4/2
f 172/4/2 173/4/2 175/4/2
f 175/4/2 174/4/2 176/4/2
f 177/4/2 178/4/2 179/4/2
f 179/4/2 178/4/2 180/4/2
f 181/4/2 182/4/2 183/4/2
f 183/4/2 182/4/2 184/4/2
f 185/4/2 186/4/2 187/4/2
f 187/4/2 186/4/2 188/4/2
f 189/6/2 190/6/2 191/6/2
f 191/6/2 190/6/2 192/6/2
f 193/1/2 194/1/2 195/1/2
f 195/1/2 194/1/2 196/1/2
f 197/4/2 198/4/2 201/4/2
f 201/4/2 198/4/2 202/4/2
f 199/4/2 200/4/2 203/4/2
f 203/4/2 200/4/2 204/4/2
f 205/4/2 206/4/2 209/4/2
f 209/4/2 206/4/2 210/4/2
f 207/4/2 208/4/2 211/4/2
f 211/4/2 208/4/2 212/4/2
f 213/4/2 214/4/2 216/4/2
f 216/4/2 214/4/2 217/4/2
f 215/4/2 216/4/2 219/4/2
f 217/4/2 218/4/2 219/4/2
f 216/4/2 217/4/2 219/4/2
f 219/4/2 218/4/2 220/4/2
f 220/4/2 218/4/2 221/4/2
f 221/4/2 218/4/2 222/4/2
f 220/4/2 221/4/2 223/4/2
f 223/4/2 221/4/2 224/4/2
f 225/6/2 226/6/2 227/6/2
f 227/6/2 226/6/2 228/6/2
f 228/6/2 229/6/2 232/6/2
f 232/6/2 229/6/2 233/6/2
f 230/6/2 231/6/2 235/6/2
f 235/6/2 231/6/2 236/6/2
f 233/6/2 234/6/2 237/6/2
f 237/6/2 234/6/2 238/6/2
f 239/6/2 240/6/2 241/6/2
f 241/6/2 240/6/2 242/6/2
f 242/6/2 240/6/2 243/6/2
f 243/6/2 240/6/2 244/6/2
f 242/6/2 243/6/2 245/6/2
f 245/6/2 243/6/2 246/6/2
f 246/6/2 243/6/2 247/6/2
f 247/4/2 248/4/2 249/4/2
f 246/4/2 247/4/2 249/4/2
f 249/4/2 248/4/2 250/4/2
f 249/5/2 250/5/2 251/5/2
f 251/5/2 250/5/2 252/5/2
f 249/5/2 251/5/2 253/5/2
f 252/5/2 250/5/2 254/5/2
f 249/5/2 253/5/2 255/5/2
f 253/5/2 254/5/2 255/5/2
f 254/5/2 250/5/2 256/5/2
f 255/5/2 254/5/2 256/5/2
f 257/5/2 258/5/2 261/5/2
f 261/5/2 258/5/2 262/5/2
f 259/5/2 260/5/2 263/5/2
f 263/5/2 260/5/2 264/5/2
f 265/1/2 266/1/2 267/1/2
f 267/1/2 266/1/2 268/1/2
f 271/6/3 270/6/3 269/6/3
f 272/6/3 270/6/3 271/6/3
f 275/6/3 274/6/3 273/6/3
f 276/6/3 274/6/3 275/6/3
f 279/6/3 278/6/3 277/6/3
f 280/6/3 278/6/3 279/6/3
f 283/6/3 281/6/3 280/6/3
f 284/6/3 281/6/3 283/6/3
f 285/6/3 283/6/3 282/6/3
f 286/6/3 283/6/3 285/6/3
f 289/6/3 288/6/3 287/6/3
f 290/6/3 288/6/3 289/6/3
f 293/6/3 291/6/3 290/6/3
f 294/6/3 291/6/3 293/6/3
f 295/6/3 293/6/3 292/6/3
f 296/6/3 293/6/3 295/6/3
f 299/6/3 298/6/3 297/6/3
f 300/6/3 298/6/3 299/6/3
f 305/4/3 303/4/3 302/4/3
f 306/4/3 303/4/3 305/4/3
f 307/4/3 303/4/3 306/4/3
f 308/4/3 303/4/3 307/4/3
f 311/6/3 301/6/3 300/6/3
f 312/6/3 301/6/3 311/6/3
f 313/4/3 305/4/3 304/4/3
f 313/4/3 306/4/3 305/4/3
f 314/4/3 306/4/3 313/4/3
f 315/6/3 311/6/3 310/6/3
f 316/6/3 311/6/3 315/6/3
f 317/4/3 313/4/3 304/4/3
f 318/4/3 306/4/3 314/4/3
f 319/4/3 306/4/3 318/4/3
f 320/4/3 308/4/3 307/4/3
f 320/4/3 309/4/3 308/4/3
f 321/4/3 319/4/3 318/4/3
f 321/4/3 320/4/3 319/4/3
f 321/4/3 317/4/3 304/4/3
f 321/4/3 318/4/3 317/4/3
f 322/4/3 320/4/3 321/4/3
f 323/4/3 321/4/3 304/4/3
f 324/4/3 320/4/3 322/4/3
f 327/4/3 323/4/3 304/4/3
f 327/4/3 324/4/3 323/4/3
f 328/4/3 320/4/3 324/4/3
f 328/4/3 324/4/3 327/4/3
f 329/4/3 320/4/3 328/4/3
f 330/4/3 309/4/3 320/4/3
f 330/4/3 320/4/3 329/4/3
f 331/6/3 326/6/3 325/6/3
f 332/6/3 326/6/3 331/6/3
f 334/4/3 327/4/3 304/4/3
f 335/4/3 329/4/3 328/4/3
f 336/4/3 334/4/3 304/4/3
f 336/4/3 335/4/3 334/4/3
f 337/4/3 335/4/3 336/4/3
f 338/4/3 329/4/3 335/4/3
f 338/4/3 335/4/3 337/4/3
f 339/4/3 309/4/3 330/4/3
f 340/4/3 309/4/3 339/4/3
f 341/4/3 309/4/3 340/4/3
f 342/4/3 338/4/3 337/4/3
f 342/4/3 340/4/3 339/4/3
f 342/4/3 339/4/3 338/4/3
f 343/4/3 340/4/3 342/4/3
f 345/6/3 333/6/3 332/6/3
f 346/6/3 333/6/3 345/6/3
f 347/6/3 345/6/3 344/6/3
f 348/6/3 345/6/3 347/6/3
f 352/4/3 350/4/3 349/4/3
f 353/4/3 350/4/3 352/4/3
f 354/5/3 351/5/3 350/5/3
f 358/5/3 354/5/3 350/5/3
f 358/4/3 355/4/3 354/4/3
f 359/4/3 355/4/3 358/4/3
f 362/4/3 357/4/3 356/4/3
f 363/4/3 357/4/3 362/4/3
f 365/4/3 350/4/3 353/4/3
f 368/3/3 361/3/3 360/3/3
f 369/3/3 361/3/3 368/3/3
f 370/4/3 365/4/3 364/4/3
f 371/4/3 350/4/3 365/4/3
f 371/4/3 365/4/3 370/4/3
f 372/1/3 367/1/3 366/1/3
f 373/1/3 367/1/3 372/1/3
f 374/2/3 369/2/3 368/2/3
f 375/2/3 369/2/3 374/2/3
f 378/1/3 377/1/3 376/1/3
f 379/1/3 377/1/3 378/1/3
f 381/4/3 350/4/3 371/4/3
f 386/4/3 381/4/3 380/4/3
f 387/4/3 381/4/3 386/4/3
f 388/1/3 383/1/3 382/1/3
f 389/1/3 383/1/3 388/1/3
f 390/2/3 385/2/3 384/2/3
f 391/2/3 385/2/3 390/2/3
f 392/5/3 358/5/3 350/5/3
f 394/3/3 391/3/3 390/3/3
f 395/3/3 391/3/3 394/3/3
f 398/5/3 392/5/3 350/5/3
f 398/4/3 393/4/3 392/4/3
f 399/4/3 393/4/3 398/4/3
f 400/4/3 397/4/3 396/4/3
f 401/4/3 397/4/3 400/4/3
f 403/4/3 381/4/3 387/4/3
f 404/4/3 403/4/3 402/4/3
f 405/4/3 350/4/3 381/4/3
f 405/4/3 403/4/3 404/4/3
f 405/5/3 398/5/3 350/5/3
f 405/4/3 381/4/3 403/4/3
f 406/5/3 398/5/3 405/5/3
f 409/5/3 408/5/3 407/5/3
f 410/5/3 408/5/3 409/5/3
f 413/1/3 412/1/3 411/1/3
f 414/1/3 412/1/3 413/1/3
f 417/5/3 416/5/3 415/5/3
f 418/5/3 416/5/3 417/5/3
f 421/1/3 420/1/3 419/1/3
f 422/1/3 420/1/3 421/1/3
f 425/1/3 424/1/3 423/1/3
f 426/1/3 424/1/3 425/1/3
f 429/6/3 428/6/3 427/6/3
f 430/6/3 428/6/3 429/6/3
f 433/6/3 432/6/3 431/6/3
f 434/6/3 432/6/3 433/6/3
f 437/4/3 436/4/3 435/4/3
f 438/4/3 436/4/3 437/4/3
f 439/6/4 440/6/4 441/6/4
f 441/6/4 440/6/4 442/6/4
f 443/6/4 444/6/4 445/6/4
f 445/6/4 444/6/4 446/6/4
f 447/4/4 448/4/4 449/4/4
f 449/4/4 448/4/4 450/4/4
f 451/1/4 452/1/4 453/1/4
f 453/1/4 452/1/4 454/1/4
f 455/1/4 456/1/4 457/1/4
f 457/1/4 456/1/4 458/1/4
f 459/5/4 460/5/4 463/5/4
f 463/5/4 460/5/4 464/5/4
f 461/6/4 462/6/4 465/6/4
f 465/6/4 462/6/4 466/6/4
f 467/6/4 468/6/4 471/6/4
f 471/6/4 468/6/4 472/6/4
f 473/6/4 474/6/4 475/6/4
f 475/6/4 474/6/4 476/6/4
f 469/1/4 470/1/4 477/1/4
f 477/1/4 470/1/4 478/1/4
f 479/6/4 480/6/4 481/6/4
f 481/6/4 480/6/4 482/6/4
f 483/5/4 484/5/4 485/5/4
f 485/5/4 484/5/4 486/5/4
f 487/6/4 488/6/4 492/6/4
f 489/4/4 490/4/4 493/4/4
f 490/5/4 491/5/4 494/5/4
f 490/5/4 494/5/4 498/5/4
f 494/4/4 495/4/4 498/4/4
f 498/4/4 495/4/4 499/4/4
f 496/4/4 497/4/4 500/4/4
f 500/4/4 497/4/4 501/4/4
f 492/6/4 493/6/4 502/6/4
f 487/6/4 492/6/4 502/6/4
f 493/4/4 490/4/4 503/4/4
f 502/6/4 493/6/4 503/6/4
f 487/6/4 502/6/4 504/6/4
f 504/6/4 502/6/4 505/6/4
f 503/4/4 490/4/4 506/4/4
f 506/4/4 490/4/4 507/4/4
f 507/4/4 490/4/4 511/4/4
f 508/6/4 509/6/4 512/6/4
f 510/4/4 511/4/4 513/4/4
f 490/5/4 498/5/4 514/5/4
f 490/5/4 514/5/4 518/5/4
f 514/4/4 515/4/4 518/4/4
f 518/4/4 515/4/4 519/4/4
f 516/4/4 517/4/4 520/4/4
f 520/4/4 517/4/4 521/4/4
f 508/6/4 512/6/4 522/6/4
f 512/6/4 513/6/4 522/6/4
f 513/4/4 511/4/4 523/4/4
f 522/6/4 513/6/4 523/6/4
f 508/6/4 522/6/4 524/6/4
f 524/6/4 522/6/4 525/6/4
f 523/4/4 511/4/4 526/4/4
f 511/4/4 490/4/4 527/4/4
f 526/4/4 511/4/4 527/4/4
f 490/5/4 518/5/4 527/5/4
f 527/5/4 518/5/4 528/5/4
f 529/4/4 530/4/4 532/4/4
f 532/4/4 530/4/4 533/4/4
f 531/4/4 532/4/4 535/4/4
f 533/4/4 534/4/4 535/4/4
f 532/4/4 533/4/4 535/4/4
f 535/4/4 534/4/4 536/4/4
f 536/4/4 534/4/4 537/4/4
f 537/4/4 534/4/4 538/4/4
f 536/4/4 537/4/4 539/4/4
f 539/4/4 537/4/4 540/4/4
f 546/6/5 542/6/5 541/6/5
f 547/6/5 542/6/5 546/6/5
f 550/6/5 544/6/5 543/6/5
f 551/6/5 544/6/5 550/6/5
f 553/6/5 548/6/5 547/6/5
f 553/6/5 546/6/5 545/6/5
f 553/6/5 547/6/5 546/6/5
f 554/6/5 548/6/5 553/6/5
f 555/6/5 552/6/5 551/6/5
f 555/6/5 551/6/5 550/6/5
f 555/6/5 550/6/5 549/6/5
f 556/6/5 552/6/5 555/6/5
f 561/6/5 558/6/5 557/6/5
f 562/6/5 558/6/5 561/6/5
f 563/6/5 560/6/5 559/6/5
f 564/6/5 560/6/5 563/6/5
f 573/4/5 566/4/5 565/4/5
f 574/4/5 566/4/5 573/4/5
f 575/4/5 568/4/5 567/4/5
f 576/4/5 568/4/5 575/4/5
f 577/4/5 570/4/5 569/4/5
f 578/4/5 570/4/5 577/4/5
f 579/4/5 572/4/5 571/4/5
f 580/4/5 572/4/5 579/4/5
f 583/4/5 582/4/5 581/4/5
f 584/4/5 582/4/5 583/4/5
f 590/5/5 586/5/5 585/5/5
f 591/5/5 588/5/5 587/5/5
f 593/1/5 590/1/5 589/1/5
f 594/5/5 586/5/5 590/5/5
f 594/1/5 590/1/5 593/1/5
f 595/1/5 592/1/5 591/1/5
f 595/5/5 591/5/5 587/5/5
f 596/1/5 592/1/5 595/1/5
f 597/5/5 586/5/5 594/5/5
f 598/5/5 586/5/5 597/5/5
f 599/5/5 595/5/5 587/5/5
f 600/5/5 595/5/5 599/5/5
f 603/4/5 602/4/5 601/4/5
f 604/4/5 602/4/5 603/4/5
f 607/4/5 606/4/5 605/4/5
f 608/4/5 606/4/5 607/4/5
f 613/4/5 610/4/5 609/4/5
f 614/4/5 610/4/5 613/4/5
f 615/4/5 612/4/5 611/4/5
f 616/4/5 612/4/5 615/4/5
f 617/1/5 615/1/5 614/1/5
f 618/1/5 615/1/5 617/1/5
f 619/1/5 617/1/5 614/1/5
f 620/1/5 615/1/5 618/1/5
f 622/1/5 619/1/5 614/1/5
f 622/1/5 620/1/5 619/1/5
f 623/1/5 615/1/5 620/1/5
f 623/1/5 620/1/5 622/1/5
f 625/4/5 622/4/5 621/4/5
f 626/4/5 622/4/5 625/4/5
f 627/4/5 624/4/5 623/4/5
f 628/4/5 624/4/5 627/4/5
f 635/4/5 630/4/5 629/4/5
f 636/4/5 630/4/5 635/4/5
f 637/4/5 632/4/5 631/4/5
f 638/4/5 632/4/5 637/4/5
f 639/4/5 634/4/5 633/4/5
f 640/4/5 634/4/5 639/4/5
f 645/4/5 642/4/5 641/4/5
f 646/4/5 642/4/5 645/4/5
f 647/4/5 642/4/5 646/4/5
f 648/4/5 644/4/5 643/4/5
f 649/4/5 644/4/5 648/4/5
f 650/4/5 644/4/5 649/4/5
f 651/6/6 652/6/6 656/6/6
f 656/6/6 652/6/6 657/6/6
f 653/6/6 654/6/6 660/6/6
f 660/6/6 654/6/6 661/6/6
f 655/6/6 656/6/6 663/6/6
f 663/6/6 656/6/6 664/6/6
f 657/6/6 658/6/6 665/6/6
f 665/6/6 658/6/6 666/6/6
f 659/6/6 660/6/6 667/6/6
f 667/6/6 660/6/6 668/6/6
f 661/6/6 662/6/6 669/6/6
f 669/6/6 662/6/6 670/6/6
f 664/6/6 665/6/6 671/6/6
f 671/6/6 665/6/6 672/6/6
f 668/6/6 669/6/6 673/6/6
f 673/6/6 669/6/6 674/6/6
f 675/6/6 676/6/6 683/6/6
f 683/6/6 676/6/6 684/6/6
f 677/6/6 678/6/6 685/6/6
f 685/6/6 678/6/6 686/6/6
f 679/6/6 680/6/6 687/6/6
f 687/6/6 680/6/6 688/6/6
f 681/6/6 682/6/6 689/6/6
f 689/6/6 682/6/6 690/6/6
f 691/6/6 692/6/6 696/6/6
f 696/6/6 692/6/6 697/6/6
f 693/6/6 694/6/6 700/6/6
f 700/6/6 694/6/6 701/6/6
f 695/6/6 696/6/6 703/6/6
f 703/6/6 696/6/6 704/6/6
f 697/6/6 698/6/6 705/6/6
f 705/6/6 698/6/6 706/6/6
f 699/6/6 700/6/6 707/6/6
f 707/6/6 700/6/6 708/6/6
f 701/6/6 702/6/6 709/6/6
f 709/6/6 702/6/6 710/6/6
f 711/6/6 712/6/6 715/6/6
f 715/6/6 712/6/6 716/6/6
f 713/6/6 714/6/6 717/6/6
f 717/6/6 714/6/6 718/6/6
f 719/5/6 720/5/6 724/5/6
f 721/5/6 722/5/6 725/5/6
f 723/1/6 724/1/6 727/1/6
f 724/5/6 720/5/6 728/5/6
f 727/1/6 724/1/6 728/1/6
f 725/1/6 726/1/6 729/1/6
f 721/5/6 725/5/6 729/5/6
f 729/1/6 726/1/6 730/1/6
f 728/5/6 720/5/6 731/5/6
f 731/5/6 720/5/6 732/5/6
f 721/5/6 729/5/6 733/5/6
f 733/5/6 729/5/6 734/5/6
f 737/5/6 738/5/6 741/5/6
f 741/5/6 738/5/6 742/5/6
f 737/5/6 741/5/6 743/5/6
f 742/5/6 738/5/6 744/5/6
f 735/5/6 736/5/6 745/5/6
f 745/5/6 736/5/6 746/5/6
f 743/5/6 744/5/6 747/5/6
f 737/5/6 743/5/6 747/5/6
f 744/5/6 738/5/6 748/5/6
f 747/5/6 744/5/6 748/5/6
f 739/5/6 740/5/6 749/5/6
f 749/5/6 740/5/6 750/5/6
f 751/4/6 752/4/6 757/4/6
f 757/4/6 752/4/6 758/4/6
f 753/4/6 754/4/6 759/4/6
f 759/4/6 754/4/6 760/4/6
f 755/4/6 756/4/6 761/4/6
f 761/4/6 756/4/6 762/4/6
f 763/4/6 764/4/6 767/4/6
f 767/4/6 764/4/6 768/4/6
f 768/4/6 764/4/6 769/4/6
f 765/4/6 766/4/6 770/4/6
f 770/4/6 766/4/6 771/4/6
f 771/4/6 766/4/6 772/4/6
f 773/4/6 774/4/6 777/4/6
f 777/4/6 774/4/6 778/4/6
f 775/4/6 776/4/6 779/4/6
f 779/4/6 776/4/6 780/4/6
f 781/4/6 782/4/6 785/4/6
f 785/4/6 782/4/6 786/4/6
f 783/4/6 784/4/6 787/4/6
f 787/4/6 784/4/6 788/4/6
f 789/4/6 790/4/6 792/4/6
f 792/4/6 790/4/6 793/4/6
f 791/4/6 792/4/6 795/4/6
f 793/4/6 794/4/6 795/4/6
f 792/4/6 793/4/6 795/4/6
f 795/4/6 794/4/6 796/4/6
f 796/4/6 794/4/6 797/4/6
f 797/4/6 794/4/6 798/4/6
f 796/4/6 797/4/6 799/4/6
f 799/4/6 797/4/6 800/4/6
