# MagicaVoxel @ Ephtracy

# material
mtllib Sword.mtl
usemtl palette

# normals
vn -1 0 0
vn 1 0 0
vn 0 0 1
vn 0 0 -1
vn 0 -1 0
vn 0 1 0

# texcoords
vt 0.0292969 0.5
vt 0.970703 0.5
vt 0.982422 0.5

# verts
v -1 0 1
v -1 0 -1
v -1 1 1
v -1 1 -1
v -1 3 4
v -1 3 3
v -1 3 -3
v -1 3 -4
v -1 4 4
v -1 4 3
v -1 4 1
v -1 4 -1
v -1 4 -3
v -1 4 -4
v -1 5 3
v -1 5 1
v -1 5 -1
v -1 5 -3
v -1 12 1
v -1 12 -1
v 1 0 1
v 1 0 -1
v 1 1 1
v 1 1 -1
v 1 3 4
v 1 3 3
v 1 3 -3
v 1 3 -4
v 1 4 4
v 1 4 3
v 1 4 1
v 1 4 -1
v 1 4 -3
v 1 4 -4
v 1 5 3
v 1 5 1
v 1 5 -1
v 1 5 -3
v 1 12 1
v 1 12 -1
v -1 3 4
v -1 4 4
v 1 3 4
v 1 4 4
v -1 4 3
v -1 5 3
v 1 4 3
v 1 5 3
v -1 0 1
v -1 1 1
v -1 4 1
v -1 5 1
v -1 12 1
v 1 0 1
v 1 1 1
v 1 4 1
v 1 5 1
v 1 12 1
v -1 3 -3
v -1 4 -3
v 1 3 -3
v 1 4 -3
v -1 3 3
v -1 4 3
v 1 3 3
v 1 4 3
v -1 0 -1
v -1 1 -1
v -1 4 -1
v -1 5 -1
v -1 12 -1
v 1 0 -1
v 1 1 -1
v 1 4 -1
v 1 5 -1
v 1 12 -1
v -1 4 -3
v -1 5 -3
v 1 4 -3
v 1 5 -3
v -1 3 -4
v -1 4 -4
v 1 3 -4
v 1 4 -4
v -1 0 1
v 1 0 1
v -1 0 -1
v 1 0 -1
v -1 3 4
v 1 3 4
v -1 3 3
v 1 3 3
v -1 3 -3
v 1 3 -3
v -1 3 -4
v 1 3 -4
v -1 4 3
v 1 4 3
v -1 4 1
v 1 4 1
v -1 4 -1
v 1 4 -1
v -1 4 -3
v 1 4 -3
v -1 4 4
v 1 4 4
v -1 4 3
v 1 4 3
v -1 4 -3
v 1 4 -3
v -1 4 -4
v 1 4 -4
v -1 5 3
v 1 5 3
v -1 5 1
v 1 5 1
v -1 5 -1
v 1 5 -1
v -1 5 -3
v 1 5 -3
v -1 12 1
v 1 12 1
v -1 12 -1
v 1 12 -1

# faces
f 3/3/1 2/3/1 1/3/1
f 4/3/1 2/3/1 3/3/1
f 9/3/1 6/3/1 5/3/1
f 10/3/1 6/3/1 9/3/1
f 11/1/1 4/1/1 3/1/1
f 12/1/1 4/1/1 11/1/1
f 13/3/1 8/3/1 7/3/1
f 14/3/1 8/3/1 13/3/1
f 15/3/1 12/3/1 11/3/1
f 15/3/1 13/3/1 12/3/1
f 15/3/1 11/3/1 10/3/1
f 16/3/1 13/3/1 15/3/1
f 17/3/1 13/3/1 16/3/1
f 18/3/1 13/3/1 17/3/1
f 19/2/1 17/2/1 16/2/1
f 20/2/1 17/2/1 19/2/1
f 21/3/2 22/3/2 23/3/2
f 23/3/2 22/3/2 24/3/2
f 25/3/2 26/3/2 29/3/2
f 29/3/2 26/3/2 30/3/2
f 23/1/2 24/1/2 31/1/2
f 31/1/2 24/1/2 32/1/2
f 27/3/2 28/3/2 33/3/2
f 33/3/2 28/3/2 34/3/2
f 31/3/2 32/3/2 35/3/2
f 32/3/2 33/3/2 35/3/2
f 30/3/2 31/3/2 35/3/2
f 35/3/2 33/3/2 36/3/2
f 36/3/2 33/3/2 37/3/2
f 37/3/2 33/3/2 38/3/2
f 36/2/2 37/2/2 39/2/2
f 39/2/2 37/2/2 40/2/2
f 43/3/3 42/3/3 41/3/3
f 44/3/3 42/3/3 43/3/3
f 47/3/3 46/3/3 45/3/3
f 48/3/3 46/3/3 47/3/3
f 54/3/3 50/3/3 49/3/3
f 55/1/3 51/1/3 50/1/3
f 55/3/3 50/3/3 54/3/3
f 56/1/3 51/1/3 55/1/3
f 57/2/3 53/2/3 52/2/3
f 58/2/3 53/2/3 57/2/3
f 61/3/3 60/3/3 59/3/3
f 62/3/3 60/3/3 61/3/3
f 63/3/4 64/3/4 65/3/4
f 65/3/4 64/3/4 66/3/4
f 67/3/4 68/3/4 72/3/4
f 68/1/4 69/1/4 73/1/4
f 72/3/4 68/3/4 73/3/4
f 73/1/4 69/1/4 74/1/4
f 70/2/4 71/2/4 75/2/4
f 75/2/4 71/2/4 76/2/4
f 77/3/4 78/3/4 79/3/4
f 79/3/4 78/3/4 80/3/4
f 81/3/4 82/3/4 83/3/4
f 83/3/4 82/3/4 84/3/4
f 87/3/5 86/3/5 85/3/5
f 88/3/5 86/3/5 87/3/5
f 91/3/5 90/3/5 89/3/5
f 92/3/5 90/3/5 91/3/5
f 95/3/5 94/3/5 93/3/5
f 96/3/5 94/3/5 95/3/5
f 99/3/5 98/3/5 97/3/5
f 100/3/5 98/3/5 99/3/5
f 103/3/5 102/3/5 101/3/5
f 104/3/5 102/3/5 103/3/5
f 105/3/6 106/3/6 107/3/6
f 107/3/6 106/3/6 108/3/6
f 109/3/6 110/3/6 111/3/6
f 111/3/6 110/3/6 112/3/6
f 113/3/6 114/3/6 115/3/6
f 115/3/6 114/3/6 116/3/6
f 117/3/6 118/3/6 119/3/6
f 119/3/6 118/3/6 120/3/6
f 121/2/6 122/2/6 123/2/6
f 123/2/6 122/2/6 124/2/6
